<?xml version="1.0" encoding="UTF-8"?>
<!DOCTYPE svg PUBLIC "-//W3C//DTD SVG 1.1//EN" "http://www.w3.org/Graphics/SVG/1.1/DTD/svg11.dtd">
<svg xmlns="http://www.w3.org/2000/svg" version="1.1" width="100" height="100"  style="shape-rendering:geometricPrecision; text-rendering:geometricPrecision; image-rendering:optimizeQuality; fill-rule:evenodd; clip-rule:evenodd" xmlns:xlink="http://www.w3.org/1999/xlink">
<g><path style="opacity:1" fill="#ef7123" d="M -0.5,-0.5 C 7.5,-0.5 15.5,-0.5 23.5,-0.5C 15.8333,7.83333 7.83333,15.8333 -0.5,23.5C -0.5,15.5 -0.5,7.5 -0.5,-0.5 Z"/></g>
<g><path style="opacity:1" fill="#608174" d="M 23.5,-0.5 C 28.8333,-0.5 34.1667,-0.5 39.5,-0.5C 26.5,13.1667 13.1667,26.5 -0.5,39.5C -0.5,34.1667 -0.5,28.8333 -0.5,23.5C 7.83333,15.8333 15.8333,7.83333 23.5,-0.5 Z"/></g>
<g><path style="opacity:1" fill="#af2276" d="M 39.5,-0.5 C 46.1667,-0.5 52.8333,-0.5 59.5,-0.5C 72.5,13.1667 85.8333,26.5 99.5,39.5C 99.5,46.1667 99.5,52.8333 99.5,59.5C 85.8333,72.5 72.5,85.8333 59.5,99.5C 52.8333,99.5 46.1667,99.5 39.5,99.5C 26.5,85.8333 13.1667,72.5 -0.5,59.5C -0.5,52.8333 -0.5,46.1667 -0.5,39.5C 13.1667,26.5 26.5,13.1667 39.5,-0.5 Z"/></g>
<g><path style="opacity:1" fill="#608174" d="M 59.5,-0.5 C 64.8333,-0.5 70.1667,-0.5 75.5,-0.5C 83.1667,7.83333 91.1667,15.8333 99.5,23.5C 99.5,28.8333 99.5,34.1667 99.5,39.5C 85.8333,26.5 72.5,13.1667 59.5,-0.5 Z"/></g>
<g><path style="opacity:1" fill="#ef7123" d="M 75.5,-0.5 C 83.5,-0.5 91.5,-0.5 99.5,-0.5C 99.5,7.5 99.5,15.5 99.5,23.5C 91.1667,15.8333 83.1667,7.83333 75.5,-0.5 Z"/></g>
<g><path style="opacity:1" fill="#f27122" d="M 85.5,42.5 C 83.5227,44.8138 81.5227,47.1472 79.5,49.5C 81.5227,51.8528 83.5227,54.1862 85.5,56.5C 74.1559,68.8441 62.1559,80.5108 49.5,91.5C 37.4526,79.7846 25.4526,68.1179 13.5,56.5C 15.4773,54.1862 17.4773,51.8528 19.5,49.5C 17.4773,47.1472 15.4773,44.8138 13.5,42.5C 25.4526,30.8821 37.4526,19.2154 49.5,7.5C 61.5474,19.2154 73.5474,30.8821 85.5,42.5 Z"/></g>
<g><path style="opacity:1" fill="#fff6f1" d="M 35.5,30.5 C 42.8409,30.3337 50.1742,30.5003 57.5,31C 66.6774,35.5372 68.8441,42.3706 64,51.5C 60.1796,55.8359 55.3463,57.8359 49.5,57.5C 49.5,54.8333 49.5,52.1667 49.5,49.5C 55.3771,49.7943 57.8771,47.1276 57,41.5C 53.6727,38.8461 49.8394,37.8461 45.5,38.5C 45.5,48.5 45.5,58.5 45.5,68.5C 42.1667,68.5 38.8333,68.5 35.5,68.5C 35.5,55.8333 35.5,43.1667 35.5,30.5 Z"/></g>
<g><path style="opacity:1" fill="#fcf5f8" d="M 13.5,42.5 C 15.4773,44.8138 17.4773,47.1472 19.5,49.5C 17.4773,51.8528 15.4773,54.1862 13.5,56.5C 12.399,57.7997 11.0657,58.2997 9.5,58C 6.56806,55.5767 4.23473,52.7434 2.5,49.5C 4.23473,46.2566 6.56806,43.4233 9.5,41C 11.0657,40.7003 12.399,41.2003 13.5,42.5 Z"/></g>
<g><path style="opacity:1" fill="#fcf5f8" d="M 85.5,56.5 C 83.5227,54.1862 81.5227,51.8528 79.5,49.5C 81.5227,47.1472 83.5227,44.8138 85.5,42.5C 86.4584,42.0472 87.2917,41.3805 88,40.5C 91.7223,42.7205 94.5556,45.7205 96.5,49.5C 94.7653,52.7434 92.4319,55.5767 89.5,58C 87.9343,58.2997 86.601,57.7997 85.5,56.5 Z"/></g>
<g><path style="opacity:1" fill="#608174" d="M -0.5,59.5 C 13.1667,72.5 26.5,85.8333 39.5,99.5C 34.1667,99.5 28.8333,99.5 23.5,99.5C 15.8333,91.1667 7.83333,83.1667 -0.5,75.5C -0.5,70.1667 -0.5,64.8333 -0.5,59.5 Z"/></g>
<g><path style="opacity:1" fill="#5f8174" d="M 99.5,59.5 C 99.5,64.8333 99.5,70.1667 99.5,75.5C 91.1667,83.1667 83.1667,91.1667 75.5,99.5C 70.1667,99.5 64.8333,99.5 59.5,99.5C 72.5,85.8333 85.8333,72.5 99.5,59.5 Z"/></g>
<g><path style="opacity:1" fill="#ef7123" d="M -0.5,75.5 C 7.83333,83.1667 15.8333,91.1667 23.5,99.5C 15.5,99.5 7.5,99.5 -0.5,99.5C -0.5,91.5 -0.5,83.5 -0.5,75.5 Z"/></g>
<g><path style="opacity:1" fill="#f17122" d="M 99.5,75.5 C 99.5,83.5 99.5,91.5 99.5,99.5C 91.5,99.5 83.5,99.5 75.5,99.5C 83.1667,91.1667 91.1667,83.1667 99.5,75.5 Z"/></g>
</svg>
