<svg xmlns="http://www.w3.org/2000/svg" version="1.1" width="287px" height="52px" style="shape-rendering:geometricPrecision; text-rendering:geometricPrecision; image-rendering:optimizeQuality; fill-rule:evenodd; clip-rule:evenodd" xmlns:xlink="http://www.w3.org/1999/xlink">
<g><path style="opacity:0.971" fill="#ff7205" d="M 23.5,-0.5 C 77.1667,-0.5 130.833,-0.5 184.5,-0.5C 186.5,1.83333 188.5,4.16667 190.5,6.5C 196.342,12.5083 202.008,18.675 207.5,25C 202.008,31.325 196.342,37.4917 190.5,43.5C 188.14,46.5272 185.473,49.1938 182.5,51.5C 129.833,51.5 77.1667,51.5 24.5,51.5C 16.1932,43.5276 7.85984,35.5276 -0.5,27.5C -0.5,26.1667 -0.5,24.8333 -0.5,23.5C 7.83333,15.8333 15.8333,7.83333 23.5,-0.5 Z"/></g>
<g><path style="opacity:0.979" fill="#fffbf9" d="M 190.5,6.5 C 216.502,6.33336 242.502,6.50003 268.5,7C 274.369,13.0362 280.369,18.8695 286.5,24.5C 286.5,24.8333 286.5,25.1667 286.5,25.5C 280.369,31.1305 274.369,36.9638 268.5,43C 242.502,43.5 216.502,43.6666 190.5,43.5C 196.342,37.4917 202.008,31.325 207.5,25C 202.008,18.675 196.342,12.5083 190.5,6.5 Z"/></g>
<g><path style="opacity:1" fill="#fff4eb" d="M 33.5,15.5 C 37.1817,15.3347 40.8484,15.5014 44.5,16C 48.4086,18.5662 49.4086,22.0662 47.5,26.5C 45.5128,28.3274 43.1795,29.3274 40.5,29.5C 41.1721,26.3563 42.1721,23.3563 43.5,20.5C 41.8333,20.5 40.1667,20.5 38.5,20.5C 38.5,25.1667 38.5,29.8333 38.5,34.5C 36.8333,34.5 35.1667,34.5 33.5,34.5C 33.5,28.1667 33.5,21.8333 33.5,15.5 Z"/></g>
<g><path style="opacity:1" fill="#fff5ee" d="M 51.5,15.5 C 54.5,15.5 57.5,15.5 60.5,15.5C 59.664,18.5921 58.9973,21.7587 58.5,25C 59.1134,28.5419 59.7801,32.0419 60.5,35.5C 57.2234,35.7839 54.0567,35.4505 51,34.5C 52.3001,31.7069 53.1334,28.5402 53.5,25C 53.0027,21.7587 52.336,18.5921 51.5,15.5 Z"/></g>
<g><path style="opacity:1" fill="#fff8f2" d="M 67.5,15.5 C 79.1406,14.7448 82.9739,20.0781 79,31.5C 74.6651,36.3329 69.9984,36.6663 65,32.5C 64.3333,27.8333 64.3333,23.1667 65,18.5C 66.045,17.6266 66.8783,16.6266 67.5,15.5 Z"/></g>
<g><path style="opacity:1" fill="#fff8f2" d="M 89.5,26.5 C 89.2172,25.7109 88.7172,25.0442 88,24.5C 87.5017,27.8168 87.335,31.1501 87.5,34.5C 86.1667,34.5 84.8333,34.5 83.5,34.5C 83.5,28.1667 83.5,21.8333 83.5,15.5C 84.8734,15.3433 86.2068,15.51 87.5,16C 90.0373,18.9063 92.204,22.073 94,25.5C 94.4983,22.1832 94.665,18.8499 94.5,15.5C 96.1439,15.2865 97.6439,15.6198 99,16.5C 99.4995,22.4908 99.6662,28.4908 99.5,34.5C 97.8008,34.6602 96.1341,34.4935 94.5,34C 92.6991,31.5574 91.0324,29.0574 89.5,26.5 Z"/></g>
<g><path style="opacity:1" fill="#fff4eb" d="M 103.5,15.5 C 108.167,15.5 112.833,15.5 117.5,15.5C 117.714,17.1439 117.38,18.6439 116.5,20C 106.811,20.7769 106.478,21.7769 115.5,23C 116.337,24.0113 116.67,25.1779 116.5,26.5C 113.833,26.5 111.167,26.5 108.5,26.5C 108.5,27.8333 108.5,29.1667 108.5,30.5C 111.518,30.3354 114.518,30.502 117.5,31C 118.517,32.0495 118.684,33.2161 118,34.5C 113.263,35.4692 108.43,35.8025 103.5,35.5C 103.5,28.8333 103.5,22.1667 103.5,15.5 Z"/></g>
<g><path style="opacity:1" fill="#fff6ef" d="M 121.5,15.5 C 125.514,15.3345 129.514,15.5012 133.5,16C 138.795,20.0767 138.795,24.2434 133.5,28.5C 135.027,30.1933 136.36,32.0266 137.5,34C 131.03,34.3604 128.03,31.1938 128.5,24.5C 131.5,24.8333 132.833,23.5 132.5,20.5C 130.5,20.5 128.5,20.5 126.5,20.5C 126.666,25.1785 126.499,29.8452 126,34.5C 124.951,35.5171 123.784,35.6838 122.5,35C 121.522,28.5898 121.189,22.0898 121.5,15.5 Z"/></g>
<g><path style="opacity:1" fill="#fff7f1" d="M 146.5,15.5 C 148.144,15.2865 149.644,15.6198 151,16.5C 153.466,22.4237 155.632,28.4237 157.5,34.5C 154.02,33.7708 150.686,32.7708 147.5,31.5C 147.244,29.0876 148.244,27.4209 150.5,26.5C 149.855,25.354 149.022,24.354 148,23.5C 146.326,27.0207 145.16,30.6873 144.5,34.5C 142.833,34.5 141.167,34.5 139.5,34.5C 141.241,27.9427 143.574,21.6094 146.5,15.5 Z"/></g>
<g><path style="opacity:1" fill="#fff6f0" d="M 162.5,15.5 C 166.839,14.8461 170.673,15.8461 174,18.5C 174.483,19.448 174.649,20.448 174.5,21.5C 171.017,21.3094 167.684,20.6427 164.5,19.5C 164.281,20.675 164.614,21.675 165.5,22.5C 168.743,23.0148 171.576,24.3481 174,26.5C 174.659,34.1153 171.159,36.9486 163.5,35C 160.466,33.8088 158.799,31.6421 158.5,28.5C 161.577,28.3471 164.411,29.0137 167,30.5C 167.833,30.1667 168.667,29.8333 169.5,29.5C 166.408,27.9104 163.241,26.2437 160,24.5C 158.779,20.7179 159.613,17.7179 162.5,15.5 Z"/></g>
<g><path style="opacity:1" fill="#ff7610" d="M 214.5,16.5 C 226.174,14.3433 230.34,19.01 227,30.5C 226.5,31 226,31.5 225.5,32C 221.974,33.3368 218.308,33.8368 214.5,33.5C 214.5,27.8333 214.5,22.1667 214.5,16.5 Z"/></g>
<g><path style="opacity:1" fill="#ff760e" d="M 231.5,16.5 C 235.5,16.5 239.5,16.5 243.5,16.5C 243.5,17.5 243.5,18.5 243.5,19.5C 240.833,19.5 238.167,19.5 235.5,19.5C 235.5,20.5 235.5,21.5 235.5,22.5C 237.833,22.5 240.167,22.5 242.5,22.5C 242.5,23.8333 242.5,25.1667 242.5,26.5C 240.167,26.5 237.833,26.5 235.5,26.5C 235.5,27.5 235.5,28.5 235.5,29.5C 238.187,29.3359 240.854,29.5026 243.5,30C 244.337,31.0113 244.67,32.1779 244.5,33.5C 240.167,33.5 235.833,33.5 231.5,33.5C 231.5,27.8333 231.5,22.1667 231.5,16.5 Z"/></g>
<g><path style="opacity:1" fill="#ff7815" d="M 245.5,16.5 C 247.288,16.2148 248.955,16.5481 250.5,17.5C 251.569,20.5394 252.735,23.5394 254,26.5C 254.848,23.4403 255.848,20.4403 257,17.5C 258.494,16.2528 259.994,16.2528 261.5,17.5C 259.789,22.8013 257.789,27.968 255.5,33C 253.888,33.7203 252.388,33.5536 251,32.5C 249.258,27.1059 247.424,21.7726 245.5,16.5 Z"/></g>
<g><path style="opacity:1" fill="#ff7814" d="M 69.5,19.5 C 71.1439,19.2865 72.6439,19.6198 74,20.5C 74.4983,23.8168 74.665,27.1501 74.5,30.5C 72.5328,30.7394 70.6995,30.4061 69,29.5C 68.2534,26.0764 68.42,22.7431 69.5,19.5 Z"/></g>
<g><path style="opacity:1" fill="#fffdfc" d="M 218.5,20.5 C 222.24,19.7415 223.907,21.2415 223.5,25C 223.907,28.7585 222.24,30.2585 218.5,29.5C 218.5,26.5 218.5,23.5 218.5,20.5 Z"/></g>
<g><path style="opacity:1" fill="#fffaf7" d="M 18.5,21.5 C 24.7261,23.2141 25.0594,25.8808 19.5,29.5C 14.6907,27.2575 14.3574,24.5908 18.5,21.5 Z"/></g>
<g><path style="opacity:1" fill="#fffbf8" d="M 184.5,21.5 C 191.909,23.2486 192.242,25.9152 185.5,29.5C 180.691,27.2575 180.357,24.5908 184.5,21.5 Z"/></g>
<g><path style="opacity:1" fill="#ffb67d" d="M 89.5,26.5 C 88.8333,29.1667 88.1667,31.8333 87.5,34.5C 87.335,31.1501 87.5017,27.8168 88,24.5C 88.7172,25.0442 89.2172,25.7109 89.5,26.5 Z"/></g>
</svg>
